<svg width="1512" height="982" viewBox="0 0 1512 982" fill="none" xmlns="http://www.w3.org/2000/svg">
<g id="MacBook Pro 14&#34; - 11" clip-path="url(#clip0_19_200)">
<rect width="1512" height="982" fill="black"/>
<g id="rectangle">
<rect id="Rectangle 13" x="730" y="465" width="52" height="52" fill="white"/>
<rect id="Rectangle 14" x="678" y="413" width="52" height="52" fill="white"/>
<rect id="Rectangle 15" x="678" y="517" width="52" height="52" fill="white"/>
<rect id="Rectangle 16" x="782" y="517" width="52" height="52" fill="white"/>
<rect id="Rectangle 17" x="782" y="413" width="52" height="52" fill="white"/>
<rect id="Rectangle 18" x="730" y="361" width="52" height="52" fill="white"/>
<rect id="Rectangle 19" x="626" y="465" width="52" height="52" fill="white"/>
<rect id="Rectangle 20" x="730" y="569" width="52" height="52" fill="white"/>
<rect id="Rectangle 21" x="834" y="465" width="52" height="52" fill="white"/>
<rect id="Rectangle 22" x="834" y="361" width="52" height="52" fill="white"/>
<rect id="Rectangle 23" x="626" y="361" width="52" height="52" fill="white"/>
<rect id="Rectangle 24" x="626" y="569" width="52" height="52" fill="white"/>
<rect id="Rectangle 25" x="834" y="569" width="52" height="52" fill="white"/>
<rect id="Rectangle 26" x="886" y="517" width="52" height="52" fill="white"/>
<rect id="Rectangle 27" x="886" y="413" width="52" height="52" fill="white"/>
<rect id="Rectangle 28" x="782" y="309" width="52" height="52" fill="white"/>
<rect id="Rectangle 29" x="678" y="309" width="52" height="52" fill="white"/>
<rect id="Rectangle 30" x="574" y="413" width="52" height="52" fill="white"/>
<rect id="Rectangle 31" x="574" y="517" width="52" height="52" fill="white"/>
<rect id="Rectangle 32" x="678" y="621" width="52" height="52" fill="white"/>
<rect id="Rectangle 33" x="782" y="621" width="52" height="52" fill="white"/>
<rect id="Rectangle 34" x="886" y="621" width="52" height="52" fill="white"/>
<rect id="Rectangle 35" x="886" y="309" width="52" height="52" fill="white"/>
<rect id="Rectangle 36" x="574" y="309" width="52" height="52" fill="white"/>
<rect id="Rectangle 37" x="574" y="621" width="52" height="52" fill="white"/>
<rect id="Rectangle 38" x="626" y="673" width="52" height="52" fill="white"/>
<rect id="Rectangle 39" x="730" y="673" width="52" height="52" fill="white"/>
<rect id="Rectangle 40" x="834" y="673" width="52" height="52" fill="white"/>
<rect id="Rectangle 41" x="938" y="673" width="52" height="52" fill="white"/>
<rect id="Rectangle 42" x="938" y="569" width="52" height="52" fill="white"/>
<rect id="Rectangle 43" x="938" y="465" width="52" height="52" fill="white"/>
<rect id="Rectangle 44" x="938" y="361" width="52" height="52" fill="white"/>
<rect id="Rectangle 45" x="938" y="257" width="52" height="52" fill="white"/>
<rect id="Rectangle 46" x="834" y="257" width="52" height="52" fill="white"/>
<rect id="Rectangle 47" x="730" y="257" width="52" height="52" fill="white"/>
<rect id="Rectangle 48" x="626" y="257" width="52" height="52" fill="white"/>
<rect id="Rectangle 49" x="522" y="257" width="52" height="52" fill="white"/>
<rect id="Rectangle 50" x="522" y="361" width="52" height="52" fill="white"/>
<rect id="Rectangle 51" x="522" y="465" width="52" height="52" fill="white"/>
<rect id="Rectangle 52" x="522" y="569" width="52" height="52" fill="white"/>
<rect id="Rectangle 53" x="522" y="673" width="52" height="52" fill="white"/>
<rect id="Rectangle 54" x="574" y="725" width="52" height="52" fill="white"/>
<rect id="Rectangle 55" x="678" y="725" width="52" height="52" fill="white"/>
<rect id="Rectangle 56" x="782" y="725" width="52" height="52" fill="white"/>
<rect id="Rectangle 57" x="886" y="725" width="52" height="52" fill="white"/>
<rect id="Rectangle 58" x="990" y="725" width="52" height="52" fill="white"/>
<rect id="Rectangle 59" x="990" y="621" width="52" height="52" fill="white"/>
<rect id="Rectangle 60" x="990" y="517" width="52" height="52" fill="white"/>
<rect id="Rectangle 61" x="990" y="413" width="52" height="52" fill="white"/>
<rect id="Rectangle 62" x="990" y="309" width="52" height="52" fill="white"/>
<rect id="Rectangle 63" x="990" y="205" width="52" height="52" fill="white"/>
<rect id="Rectangle 64" x="886" y="205" width="52" height="52" fill="white"/>
<rect id="Rectangle 65" x="782" y="205" width="52" height="52" fill="white"/>
<rect id="Rectangle 66" x="678" y="205" width="52" height="52" fill="white"/>
<rect id="Rectangle 67" x="574" y="205" width="52" height="52" fill="white"/>
<rect id="Rectangle 68" x="470" y="205" width="52" height="52" fill="white"/>
<rect id="Rectangle 69" x="470" y="309" width="52" height="52" fill="white"/>
<rect id="Rectangle 70" x="470" y="413" width="52" height="52" fill="white"/>
<rect id="Rectangle 71" x="470" y="517" width="52" height="52" fill="white"/>
<rect id="Rectangle 72" x="470" y="621" width="52" height="52" fill="white"/>
<rect id="Rectangle 73" x="470" y="725" width="52" height="52" fill="white"/>
<rect id="Rectangle 74" x="522" y="777" width="52" height="52" fill="white"/>
<rect id="Rectangle 75" x="626" y="777" width="52" height="52" fill="white"/>
<rect id="Rectangle 76" x="730" y="777" width="52" height="52" fill="white"/>
<rect id="Rectangle 77" x="834" y="777" width="52" height="52" fill="white"/>
<rect id="Rectangle 78" x="938" y="777" width="52" height="52" fill="white"/>
<rect id="Rectangle 79" x="1042" y="777" width="52" height="52" fill="white"/>
<rect id="Rectangle 80" x="1042" y="673" width="52" height="52" fill="white"/>
<rect id="Rectangle 81" x="1042" y="569" width="52" height="52" fill="white"/>
<rect id="Rectangle 82" x="1042" y="465" width="52" height="52" fill="white"/>
<rect id="Rectangle 83" x="1042" y="361" width="52" height="52" fill="white"/>
<rect id="Rectangle 84" x="1042" y="257" width="52" height="52" fill="white"/>
<rect id="Rectangle 85" x="1042" y="153" width="52" height="52" fill="white"/>
<rect id="Rectangle 86" x="938" y="153" width="52" height="52" fill="white"/>
<rect id="Rectangle 87" x="834" y="153" width="52" height="52" fill="white"/>
<rect id="Rectangle 88" x="730" y="153" width="52" height="52" fill="white"/>
<rect id="Rectangle 89" x="626" y="153" width="52" height="52" fill="white"/>
<rect id="Rectangle 90" x="522" y="153" width="52" height="52" fill="white"/>
<rect id="Rectangle 91" x="418" y="153" width="52" height="52" fill="white"/>
<rect id="Rectangle 92" x="418" y="257" width="52" height="52" fill="white"/>
<rect id="Rectangle 93" x="418" y="361" width="52" height="52" fill="white"/>
<rect id="Rectangle 94" x="418" y="465" width="52" height="52" fill="white"/>
<rect id="Rectangle 95" x="418" y="569" width="52" height="52" fill="white"/>
<rect id="Rectangle 96" x="418" y="673" width="52" height="52" fill="white"/>
<rect id="Rectangle 97" x="418" y="777" width="52" height="52" fill="white"/>
<rect id="Rectangle 98" x="470" y="829" width="52" height="52" fill="white"/>
<rect id="Rectangle 99" x="574" y="829" width="52" height="52" fill="white"/>
<rect id="Rectangle 100" x="678" y="829" width="52" height="52" fill="white"/>
<rect id="Rectangle 101" x="782" y="829" width="52" height="52" fill="white"/>
<rect id="Rectangle 102" x="886" y="829" width="52" height="52" fill="white"/>
<rect id="Rectangle 103" x="990" y="829" width="52" height="52" fill="white"/>
<rect id="Rectangle 104" x="1094" y="829" width="52" height="52" fill="white"/>
<rect id="Rectangle 105" x="1094" y="725" width="52" height="52" fill="white"/>
<rect id="Rectangle 106" x="1094" y="621" width="52" height="52" fill="white"/>
<rect id="Rectangle 107" x="1094" y="517" width="52" height="52" fill="white"/>
<rect id="Rectangle 108" x="1094" y="413" width="52" height="52" fill="white"/>
<rect id="Rectangle 109" x="1094" y="309" width="52" height="52" fill="white"/>
<rect id="Rectangle 110" x="1094" y="205" width="52" height="52" fill="white"/>
<rect id="Rectangle 111" x="1094" y="101" width="52" height="52" fill="white"/>
<rect id="Rectangle 112" x="990" y="101" width="52" height="52" fill="white"/>
<rect id="Rectangle 113" x="886" y="101" width="52" height="52" fill="white"/>
<rect id="Rectangle 114" x="782" y="101" width="52" height="52" fill="white"/>
<rect id="Rectangle 115" x="678" y="101" width="52" height="52" fill="white"/>
<rect id="Rectangle 116" x="574" y="101" width="52" height="52" fill="white"/>
<rect id="Rectangle 117" x="470" y="101" width="52" height="52" fill="white"/>
<rect id="Rectangle 118" x="366" y="101" width="52" height="52" fill="white"/>
<rect id="Rectangle 119" x="366" y="205" width="52" height="52" fill="white"/>
<rect id="Rectangle 120" x="366" y="309" width="52" height="52" fill="white"/>
<rect id="Rectangle 121" x="366" y="413" width="52" height="52" fill="white"/>
<rect id="Rectangle 122" x="366" y="517" width="52" height="52" fill="white"/>
<rect id="Rectangle 123" x="366" y="621" width="52" height="52" fill="white"/>
<rect id="Rectangle 124" x="366" y="725" width="52" height="52" fill="white"/>
<rect id="Rectangle 125" x="366" y="829" width="52" height="52" fill="white"/>
<rect id="Rectangle 126" x="418" y="881" width="52" height="52" fill="white"/>
<rect id="Rectangle 127" x="522" y="881" width="52" height="52" fill="white"/>
<rect id="Rectangle 128" x="626" y="881" width="52" height="52" fill="white"/>
<rect id="Rectangle 129" x="730" y="881" width="52" height="52" fill="white"/>
<rect id="Rectangle 130" x="834" y="881" width="52" height="52" fill="white"/>
<rect id="Rectangle 131" x="938" y="881" width="52" height="52" fill="white"/>
<rect id="Rectangle 132" x="1042" y="881" width="52" height="52" fill="white"/>
<rect id="Rectangle 133" x="1146" y="881" width="52" height="52" fill="white"/>
<rect id="Rectangle 134" x="1146" y="777" width="52" height="52" fill="white"/>
<rect id="Rectangle 135" x="1146" y="673" width="52" height="52" fill="white"/>
<rect id="Rectangle 136" x="1146" y="569" width="52" height="52" fill="white"/>
<rect id="Rectangle 137" x="1146" y="465" width="52" height="52" fill="white"/>
<rect id="Rectangle 138" x="1146" y="361" width="52" height="52" fill="white"/>
<rect id="Rectangle 139" x="1146" y="257" width="52" height="52" fill="white"/>
<rect id="Rectangle 140" x="1146" y="153" width="52" height="52" fill="white"/>
<rect id="Rectangle 141" x="1146" y="49" width="52" height="52" fill="white"/>
<rect id="Rectangle 142" x="1042" y="49" width="52" height="52" fill="white"/>
<rect id="Rectangle 143" x="938" y="49" width="52" height="52" fill="white"/>
<rect id="Rectangle 144" x="834" y="49" width="52" height="52" fill="white"/>
<rect id="Rectangle 145" x="730" y="49" width="52" height="52" fill="white"/>
<rect id="Rectangle 146" x="626" y="49" width="52" height="52" fill="white"/>
<rect id="Rectangle 147" x="522" y="49" width="52" height="52" fill="white"/>
<rect id="Rectangle 148" x="418" y="49" width="52" height="52" fill="white"/>
<rect id="Rectangle 149" x="314" y="49" width="52" height="52" fill="white"/>
<rect id="Rectangle 150" x="314" y="153" width="52" height="52" fill="white"/>
<rect id="Rectangle 151" x="314" y="257" width="52" height="52" fill="white"/>
<rect id="Rectangle 152" x="314" y="361" width="52" height="52" fill="white"/>
<rect id="Rectangle 153" x="314" y="465" width="52" height="52" fill="white"/>
<rect id="Rectangle 154" x="314" y="569" width="52" height="52" fill="white"/>
<rect id="Rectangle 155" x="314" y="673" width="52" height="52" fill="white"/>
<rect id="Rectangle 156" x="314" y="777" width="52" height="52" fill="white"/>
<rect id="Rectangle 157" x="314" y="881" width="52" height="52" fill="white"/>
<rect id="Rectangle 158" x="366" y="930" width="52" height="52" fill="white"/>
<rect id="Rectangle 159" x="470" y="933" width="52" height="52" fill="white"/>
<rect id="Rectangle 160" x="574" y="933" width="52" height="52" fill="white"/>
<rect id="Rectangle 161" x="678" y="933" width="52" height="52" fill="white"/>
<rect id="Rectangle 162" x="782" y="930" width="52" height="52" fill="white"/>
<rect id="Rectangle 163" x="886" y="930" width="52" height="52" fill="white"/>
<rect id="Rectangle 164" x="990" y="930" width="52" height="52" fill="white"/>
<rect id="Rectangle 165" x="1094" y="930" width="52" height="52" fill="white"/>
<rect id="Rectangle 166" x="1198" y="930" width="52" height="52" fill="white"/>
<rect id="Rectangle 167" x="1198" y="829" width="52" height="52" fill="white"/>
<rect id="Rectangle 168" x="1198" y="725" width="52" height="52" fill="white"/>
<rect id="Rectangle 169" x="1198" y="624" width="52" height="52" fill="white"/>
<rect id="Rectangle 170" x="1198" y="517" width="52" height="52" fill="white"/>
<rect id="Rectangle 171" x="1198" y="416" width="52" height="52" fill="white"/>
<rect id="Rectangle 172" x="1198" y="315" width="52" height="52" fill="white"/>
<rect id="Rectangle 173" x="1198" y="205" width="52" height="52" fill="white"/>
<rect id="Rectangle 174" x="1198" y="104" width="52" height="52" fill="white"/>
<rect id="Rectangle 175" x="1198" width="52" height="52" fill="white"/>
<rect id="Rectangle 176" x="1094" width="52" height="52" fill="white"/>
<rect id="Rectangle 177" x="990" y="-3" width="52" height="52" fill="white"/>
<rect id="Rectangle 178" x="886" y="-3" width="52" height="52" fill="white"/>
<rect id="Rectangle 179" x="782" y="-3" width="52" height="52" fill="white"/>
<rect id="Rectangle 180" x="678" y="-3" width="52" height="52" fill="white"/>
<rect id="Rectangle 181" x="574" y="-3" width="52" height="52" fill="white"/>
<rect id="Rectangle 182" x="470" y="-3" width="52" height="52" fill="white"/>
<rect id="Rectangle 183" x="366" y="-3" width="52" height="52" fill="white"/>
<rect id="Rectangle 184" x="262" y="-3" width="52" height="52" fill="white"/>
<rect id="Rectangle 185" x="262" y="101" width="52" height="52" fill="white"/>
<rect id="Rectangle 186" x="262" y="205" width="52" height="52" fill="white"/>
<rect id="Rectangle 187" x="262" y="309" width="52" height="52" fill="white"/>
<rect id="Rectangle 188" x="262" y="413" width="52" height="52" fill="white"/>
<rect id="Rectangle 189" x="262" y="517" width="52" height="52" fill="white"/>
<rect id="Rectangle 190" x="262" y="621" width="52" height="52" fill="white"/>
<rect id="Rectangle 191" x="262" y="725" width="52" height="52" fill="white"/>
<rect id="Rectangle 192" x="262" y="829" width="52" height="52" fill="white"/>
<rect id="Rectangle 193" x="262" y="930" width="52" height="52" fill="white"/>
<rect id="Rectangle 194" x="1250" y="878" width="52" height="52" fill="white"/>
<rect id="Rectangle 195" x="1250" y="777" width="52" height="52" fill="white"/>
<rect id="Rectangle 196" x="1250" y="676" width="52" height="52" fill="white"/>
<rect id="Rectangle 197" x="1250" y="569" width="52" height="52" fill="white"/>
<rect id="Rectangle 198" x="1250" y="468" width="52" height="52" fill="white"/>
<rect id="Rectangle 199" x="1250" y="361" width="52" height="52" fill="white"/>
<rect id="Rectangle 200" x="1250" y="254" width="52" height="52" fill="white"/>
<rect id="Rectangle 201" x="1250" y="156" width="52" height="52" fill="white"/>
<rect id="Rectangle 202" x="1250" y="52" width="52" height="52" fill="white"/>
<rect id="Rectangle 203" x="210" y="52" width="52" height="52" fill="white"/>
<rect id="Rectangle 204" x="210" y="153" width="52" height="52" fill="white"/>
<rect id="Rectangle 205" x="210" y="257" width="52" height="52" fill="white"/>
<rect id="Rectangle 206" x="210" y="361" width="52" height="52" fill="white"/>
<rect id="Rectangle 207" x="210" y="465" width="52" height="52" fill="white"/>
<rect id="Rectangle 208" x="210" y="569" width="52" height="52" fill="white"/>
<rect id="Rectangle 209" x="210" y="673" width="52" height="52" fill="white"/>
<rect id="Rectangle 210" x="210" y="777" width="52" height="52" fill="white"/>
<rect id="Rectangle 211" x="210" y="881" width="52" height="52" fill="white"/>
<rect id="Rectangle 212" x="1302" y="933" width="52" height="52" fill="white"/>
<rect id="Rectangle 213" x="1302" y="829" width="52" height="52" fill="white"/>
<rect id="Rectangle 214" x="1302" y="728" width="52" height="52" fill="white"/>
<rect id="Rectangle 215" x="1302" y="624" width="52" height="52" fill="white"/>
<rect id="Rectangle 216" x="1302" y="520" width="52" height="52" fill="white"/>
<rect id="Rectangle 217" x="1302" y="413" width="52" height="52" fill="white"/>
<rect id="Rectangle 218" x="1302" y="309" width="52" height="52" fill="white"/>
<rect id="Rectangle 219" x="1302" y="208" width="52" height="52" fill="white"/>
<rect id="Rectangle 220" x="1302" y="101" width="52" height="52" fill="white"/>
<rect id="Rectangle 221" x="1302" width="52" height="52" fill="white"/>
<rect id="Rectangle 222" x="158" width="52" height="52" fill="white"/>
<rect id="Rectangle 223" x="158" y="104" width="52" height="52" fill="white"/>
<rect id="Rectangle 224" x="158" y="205" width="52" height="52" fill="white"/>
<rect id="Rectangle 225" x="158" y="309" width="52" height="52" fill="white"/>
<rect id="Rectangle 226" x="158" y="413" width="52" height="52" fill="white"/>
<rect id="Rectangle 227" x="158" y="517" width="52" height="52" fill="white"/>
<rect id="Rectangle 228" x="158" y="621" width="52" height="52" fill="white"/>
<rect id="Rectangle 229" x="158" y="722" width="52" height="52" fill="white"/>
<rect id="Rectangle 230" x="158" y="829" width="52" height="52" fill="white"/>
<rect id="Rectangle 231" x="158" y="930" width="52" height="52" fill="white"/>
<rect id="Rectangle 232" x="1354" y="881" width="52" height="52" fill="white"/>
<rect id="Rectangle 233" x="1354" y="780" width="52" height="52" fill="white"/>
<rect id="Rectangle 234" x="1354" y="676" width="52" height="52" fill="white"/>
<rect id="Rectangle 235" x="1354" y="569" width="52" height="52" fill="white"/>
<rect id="Rectangle 236" x="1354" y="465" width="52" height="52" fill="white"/>
<rect id="Rectangle 237" x="1354" y="361" width="52" height="52" fill="white"/>
<rect id="Rectangle 238" x="1354" y="260" width="52" height="52" fill="white"/>
<rect id="Rectangle 239" x="1354" y="156" width="52" height="52" fill="white"/>
<rect id="Rectangle 240" x="1354" y="52" width="52" height="52" fill="white"/>
<rect id="Rectangle 241" x="106" y="52" width="52" height="52" fill="white"/>
<rect id="Rectangle 242" x="106" y="156" width="52" height="52" fill="white"/>
<rect id="Rectangle 243" x="106" y="254" width="52" height="52" fill="white"/>
<rect id="Rectangle 244" x="106" y="361" width="52" height="52" fill="white"/>
<rect id="Rectangle 245" x="106" y="465" width="52" height="52" fill="white"/>
<rect id="Rectangle 246" x="106" y="569" width="52" height="52" fill="white"/>
<rect id="Rectangle 247" x="106" y="673" width="52" height="52" fill="white"/>
<rect id="Rectangle 248" x="106" y="777" width="52" height="52" fill="white"/>
<rect id="Rectangle 249" x="106" y="881" width="52" height="52" fill="white"/>
<rect id="Rectangle 250" x="1406" y="930" width="52" height="52" fill="white"/>
<rect id="Rectangle 251" x="1406" y="832" width="52" height="52" fill="white"/>
<rect id="Rectangle 252" x="1406" y="728" width="52" height="52" fill="white"/>
<rect id="Rectangle 253" x="1406" y="624" width="52" height="52" fill="white"/>
<rect id="Rectangle 254" x="1406" y="520" width="52" height="52" fill="white"/>
<rect id="Rectangle 255" x="1406" y="413" width="52" height="52" fill="white"/>
<rect id="Rectangle 256" x="1406" y="312" width="52" height="52" fill="white"/>
<rect id="Rectangle 257" x="1406" y="208" width="52" height="52" fill="white"/>
<rect id="Rectangle 258" x="1406" y="104" width="52" height="52" fill="white"/>
<rect id="Rectangle 259" x="1406" width="52" height="52" fill="white"/>
<rect id="Rectangle 260" x="54" width="52" height="52" fill="white"/>
<rect id="Rectangle 261" x="54" y="104" width="52" height="52" fill="white"/>
<rect id="Rectangle 262" x="54" y="208" width="52" height="52" fill="white"/>
<rect id="Rectangle 263" x="54" y="309" width="52" height="52" fill="white"/>
<rect id="Rectangle 264" x="54" y="413" width="52" height="52" fill="white"/>
<rect id="Rectangle 265" x="54" y="517" width="52" height="52" fill="white"/>
<rect id="Rectangle 266" x="54" y="621" width="52" height="52" fill="white"/>
<rect id="Rectangle 267" x="54" y="725" width="52" height="52" fill="white"/>
<rect id="Rectangle 268" x="54" y="828" width="52" height="52" fill="white"/>
<rect id="Rectangle 269" x="54" y="933" width="52" height="52" fill="white"/>
<rect id="Rectangle 270" x="1458" y="881" width="52" height="52" fill="white"/>
<rect id="Rectangle 271" x="1458" y="780" width="52" height="52" fill="white"/>
<rect id="Rectangle 272" x="1458" y="676" width="52" height="52" fill="white"/>
<rect id="Rectangle 273" x="1458" y="572" width="52" height="52" fill="white"/>
<rect id="Rectangle 274" x="1458" y="468" width="52" height="52" fill="white"/>
<rect id="Rectangle 275" x="1458" y="361" width="52" height="52" fill="white"/>
<rect id="Rectangle 276" x="1458" y="260" width="52" height="52" fill="white"/>
<rect id="Rectangle 277" x="1458" y="156" width="52" height="52" fill="white"/>
<rect id="Rectangle 278" x="1458" y="52" width="52" height="52" fill="white"/>
<rect id="Rectangle 279" x="2" y="52" width="52" height="52" fill="white"/>
<rect id="Rectangle 280" x="2" y="156" width="52" height="52" fill="white"/>
<rect id="Rectangle 281" x="2" y="260" width="52" height="52" fill="white"/>
<rect id="Rectangle 282" x="2" y="361" width="52" height="52" fill="white"/>
<rect id="Rectangle 283" x="2" y="465" width="52" height="52" fill="white"/>
<rect id="Rectangle 284" x="2" y="569" width="52" height="52" fill="white"/>
<rect id="Rectangle 285" x="2" y="673" width="52" height="52" fill="white"/>
<rect id="Rectangle 286" x="2" y="776" width="52" height="52" fill="white"/>
<rect id="Rectangle 287" x="2" y="881" width="52" height="52" fill="white"/>
</g>
</g>
<defs>
<clipPath id="clip0_19_200">
<rect width="1512" height="982" fill="white"/>
</clipPath>
</defs>
</svg>
