<svg width="1512" height="982" viewBox="0 0 1512 982" fill="none" xmlns="http://www.w3.org/2000/svg">
<g id="MacBook Pro 14&#34; - 28" clip-path="url(#clip0_164_985)">
<rect width="1512" height="982" fill="black"/>
<g id="damier">
<rect id="Rectangle 13" x="731" y="464" width="52" height="52" fill="white"/>
<rect id="Rectangle 14" x="679" y="412" width="52" height="52" fill="white"/>
<rect id="Rectangle 15" x="679" y="516" width="52" height="52" fill="white"/>
<rect id="Rectangle 16" x="783" y="516" width="52" height="52" fill="white"/>
<rect id="Rectangle 17" x="783" y="412" width="52" height="52" fill="white"/>
<rect id="Rectangle 18" x="731" y="360" width="52" height="52" fill="white"/>
<rect id="Rectangle 19" x="627" y="464" width="52" height="52" fill="white"/>
<rect id="Rectangle 20" x="731" y="568" width="52" height="52" fill="white"/>
<rect id="Rectangle 21" x="835" y="464" width="52" height="52" fill="white"/>
<rect id="Rectangle 22" x="835" y="360" width="52" height="52" fill="white"/>
<rect id="Rectangle 23" x="575" y="412" width="52" height="52" fill="white"/>
<rect id="Rectangle 24" x="679" y="620" width="52" height="52" fill="white"/>
<rect id="Rectangle 25" x="835" y="568" width="52" height="52" fill="white"/>
<rect id="Rectangle 26" x="627" y="360" width="52" height="52" fill="white"/>
<rect id="Rectangle 27" x="679" y="308" width="52" height="52" fill="white"/>
<rect id="Rectangle 28" x="887" y="516" width="52" height="52" fill="white"/>
<rect id="Rectangle 29" x="731" y="672" width="52" height="52" fill="white"/>
<rect id="Rectangle 30" x="887" y="620" width="52" height="52" fill="white"/>
<rect id="Rectangle 31" x="523" y="464" width="52" height="52" fill="white"/>
<rect id="Rectangle 32" x="887" y="308" width="52" height="52" fill="white"/>
<rect id="Rectangle 33" x="939" y="360" width="52" height="52" fill="white"/>
<rect id="Rectangle 34" x="939" y="568" width="52" height="52" fill="white"/>
<rect id="Rectangle 35" x="627" y="256" width="52" height="52" fill="white"/>
<rect id="Rectangle 36" x="679" y="204" width="52" height="52" fill="white"/>
<rect id="Rectangle 37" x="939" y="672" width="52" height="52" fill="white"/>
<rect id="Rectangle 38" x="991" y="620" width="52" height="52" fill="white"/>
<rect id="Rectangle 39" x="991" y="412" width="52" height="52" fill="white"/>
<rect id="Rectangle 40" x="783" y="620" width="52" height="52" fill="white"/>
<rect id="Rectangle 41" x="627" y="672" width="52" height="52" fill="white"/>
<rect id="Rectangle 42" x="835" y="256" width="52" height="52" fill="white"/>
<rect id="Rectangle 43" x="471" y="516" width="52" height="52" fill="white"/>
<rect id="Rectangle 44" x="939" y="464" width="52" height="52" fill="white"/>
<rect id="Rectangle 45" x="887" y="412" width="52" height="52" fill="white"/>
<rect id="Rectangle 46" x="783" y="724" width="52" height="52" fill="white"/>
<rect id="Rectangle 47" x="939" y="256" width="52" height="52" fill="white"/>
<rect id="Rectangle 48" x="1043" y="568" width="52" height="52" fill="white"/>
<rect id="Rectangle 49" x="991" y="204" width="52" height="52" fill="white"/>
<rect id="Rectangle 50" x="523" y="360" width="52" height="52" fill="white"/>
<rect id="Rectangle 51" x="991" y="724" width="52" height="52" fill="white"/>
<rect id="Rectangle 52" x="575" y="204" width="52" height="52" fill="white"/>
<rect id="Rectangle 53" x="731" y="776" width="52" height="52" fill="white"/>
<rect id="Rectangle 54" x="1043" y="464" width="52" height="52" fill="white"/>
<rect id="Rectangle 55" x="575" y="516" width="52" height="52" fill="white"/>
<rect id="Rectangle 56" x="887" y="204" width="52" height="52" fill="white"/>
<rect id="Rectangle 57" x="991" y="308" width="52" height="52" fill="white"/>
<rect id="Rectangle 58" x="627" y="568" width="52" height="52" fill="white"/>
<rect id="Rectangle 59" x="419" y="568" width="52" height="52" fill="white"/>
<rect id="Rectangle 60" x="471" y="620" width="52" height="52" fill="white"/>
<rect id="Rectangle 61" x="1043" y="360" width="52" height="52" fill="white"/>
<rect id="Rectangle 62" x="575" y="308" width="52" height="52" fill="white"/>
<rect id="Rectangle 63" x="835" y="672" width="52" height="52" fill="white"/>
<rect id="Rectangle 64" x="575" y="724" width="52" height="52" fill="white"/>
<rect id="Rectangle 65" x="835" y="776" width="52" height="52" fill="white"/>
<rect id="Rectangle 66" x="1043" y="672" width="52" height="52" fill="white"/>
<rect id="Rectangle 67" x="887" y="724" width="52" height="52" fill="white"/>
<rect id="Rectangle 68" x="471" y="412" width="52" height="52" fill="white"/>
<rect id="Rectangle 69" x="367" y="516" width="52" height="52" fill="white"/>
<rect id="Rectangle 70" x="575" y="620" width="52" height="52" fill="white"/>
<rect id="Rectangle 71" x="523" y="568" width="52" height="52" fill="white"/>
<rect id="Rectangle 72" x="731" y="152" width="52" height="52" fill="white"/>
<rect id="Rectangle 73" x="1043" y="152" width="52" height="52" fill="white"/>
<rect id="Rectangle 74" x="523" y="152" width="52" height="52" fill="white"/>
<rect id="Rectangle 75" x="471" y="204" width="52" height="52" fill="white"/>
<rect id="Rectangle 76" x="1095" y="724" width="52" height="52" fill="white"/>
<rect id="Rectangle 77" x="939" y="776" width="52" height="52" fill="white"/>
<rect id="Rectangle 78" x="991" y="828" width="52" height="52" fill="white"/>
<rect id="Rectangle 79" x="1043" y="776" width="52" height="52" fill="white"/>
<rect id="Rectangle 80" x="523" y="672" width="52" height="52" fill="white"/>
<rect id="Rectangle 81" x="315" y="568" width="52" height="52" fill="white"/>
<rect id="Rectangle 82" x="991" y="516" width="52" height="52" fill="white"/>
<rect id="Rectangle 83" x="419" y="360" width="52" height="52" fill="white"/>
<rect id="Rectangle 84" x="419" y="672" width="52" height="52" fill="white"/>
<rect id="Rectangle 85" x="419" y="256" width="52" height="52" fill="white"/>
<rect id="Rectangle 86" x="523" y="256" width="52" height="52" fill="white"/>
<rect id="Rectangle 87" x="627" y="152" width="52" height="52" fill="white"/>
<rect id="Rectangle 88" x="1095" y="412" width="52" height="52" fill="white"/>
<rect id="Rectangle 89" x="1095" y="516" width="52" height="52" fill="white"/>
<rect id="Rectangle 90" x="315" y="464" width="52" height="52" fill="white"/>
<rect id="Rectangle 91" x="263" y="516" width="52" height="52" fill="white"/>
<rect id="Rectangle 92" x="471" y="724" width="52" height="52" fill="white"/>
<rect id="Rectangle 93" x="419" y="776" width="52" height="52" fill="white"/>
<rect id="Rectangle 94" x="939" y="152" width="52" height="52" fill="white"/>
<rect id="Rectangle 95" x="419" y="152" width="52" height="52" fill="white"/>
<rect id="Rectangle 96" x="1147" y="776" width="52" height="52" fill="white"/>
<rect id="Rectangle 97" x="211" y="464" width="52" height="52" fill="white"/>
<rect id="Rectangle 98" x="1095" y="100" width="52" height="52" fill="white"/>
<rect id="Rectangle 99" x="523" y="776" width="52" height="52" fill="white"/>
<rect id="Rectangle 100" x="367" y="828" width="52" height="52" fill="white"/>
<rect id="Rectangle 101" x="1043" y="256" width="52" height="52" fill="white"/>
<rect id="Rectangle 102" x="1095" y="308" width="52" height="52" fill="white"/>
<rect id="Rectangle 103" x="1147" y="360" width="52" height="52" fill="white"/>
<rect id="Rectangle 104" x="471" y="308" width="52" height="52" fill="white"/>
<rect id="Rectangle 105" x="471" y="100" width="52" height="52" fill="white"/>
<rect id="Rectangle 106" x="367" y="204" width="52" height="52" fill="white"/>
<rect id="Rectangle 107" x="1095" y="620" width="52" height="52" fill="white"/>
<rect id="Rectangle 108" x="783" y="828" width="52" height="52" fill="white"/>
<rect id="Rectangle 109" x="263" y="620" width="52" height="52" fill="white"/>
<rect id="Rectangle 110" x="419" y="461" width="52" height="52" fill="white"/>
<rect id="Rectangle 111" x="679" y="100" width="52" height="52" fill="white"/>
<rect id="Rectangle 112" x="783" y="308" width="52" height="52" fill="white"/>
<rect id="Rectangle 113" x="991" y="100" width="52" height="52" fill="white"/>
<rect id="Rectangle 114" x="1095" y="204" width="52" height="52" fill="white"/>
<rect id="Rectangle 115" x="731" y="256" width="52" height="52" fill="white"/>
<rect id="Rectangle 116" x="1147" y="568" width="52" height="52" fill="white"/>
<rect id="Rectangle 117" x="1199" y="620" width="52" height="52" fill="white"/>
<rect id="Rectangle 118" x="263" y="412" width="52" height="52" fill="white"/>
<rect id="Rectangle 119" x="1147" y="152" width="52" height="52" fill="white"/>
<rect id="Rectangle 120" x="367" y="100" width="52" height="52" fill="white"/>
<rect id="Rectangle 121" x="1147" y="256" width="52" height="52" fill="white"/>
<rect id="Rectangle 122" x="367" y="308" width="52" height="52" fill="white"/>
<rect id="Rectangle 123" x="1199" y="308" width="52" height="52" fill="white"/>
<rect id="Rectangle 124" x="315" y="152" width="52" height="52" fill="white"/>
<rect id="Rectangle 125" x="1199" y="100" width="52" height="52" fill="white"/>
<rect id="Rectangle 126" x="419" y="51" width="52" height="52" fill="white"/>
<rect id="Rectangle 127" x="1251" y="568" width="52" height="52" fill="white"/>
<rect id="Rectangle 128" x="211" y="672" width="52" height="52" fill="white"/>
<rect id="Rectangle 129" x="1251" y="672" width="52" height="52" fill="white"/>
<rect id="Rectangle 130" x="263" y="724" width="52" height="52" fill="white"/>
<rect id="Rectangle 131" x="1303" y="724" width="52" height="52" fill="white"/>
<rect id="Rectangle 132" x="263" y="100" width="52" height="52" fill="white"/>
<rect id="Rectangle 133" x="1251" y="256" width="52" height="52" fill="white"/>
<rect id="Rectangle 134" x="627" y="51" width="52" height="52" fill="white"/>
<rect id="Rectangle 135" x="1043" y="48" width="52" height="52" fill="white"/>
<rect id="Rectangle 136" x="1147" y="51" width="52" height="52" fill="white"/>
<rect id="Rectangle 137" x="1199" y="-1" width="52" height="52" fill="white"/>
<rect id="Rectangle 138" x="367" y="-1" width="52" height="52" fill="white"/>
<rect id="Rectangle 139" x="159" y="412" width="52" height="52" fill="white"/>
<rect id="Rectangle 140" x="471" y="828" width="52" height="52" fill="white"/>
<rect id="Rectangle 141" x="1095" y="828" width="52" height="52" fill="white"/>
<rect id="Rectangle 142" x="1043" y="880" width="52" height="52" fill="white"/>
<rect id="Rectangle 143" x="1147" y="880" width="52" height="52" fill="white"/>
<rect id="Rectangle 144" x="1303" y="620" width="52" height="52" fill="white"/>
<rect id="Rectangle 145" x="1303" y="308" width="52" height="52" fill="white"/>
<rect id="Rectangle 146" x="991" y="-1" width="52" height="52" fill="white"/>
<rect id="Rectangle 147" x="107" y="464" width="52" height="52" fill="white"/>
<rect id="Rectangle 148" x="1355" y="360" width="52" height="52" fill="white"/>
<rect id="Rectangle 149" x="1303" y="409" width="52" height="52" fill="white"/>
<rect id="Rectangle 150" x="1355" y="568" width="52" height="52" fill="white"/>
<rect id="Rectangle 151" x="679" y="724" width="52" height="52" fill="white"/>
<rect id="Rectangle 152" x="887" y="103" width="52" height="52" fill="white"/>
<rect id="Rectangle 153" x="1251" y="51" width="52" height="52" fill="white"/>
<rect id="Rectangle 154" x="1303" y="103" width="52" height="52" fill="white"/>
<rect id="Rectangle 155" x="211" y="155" width="52" height="52" fill="white"/>
<rect id="Rectangle 156" x="55" y="516" width="52" height="52" fill="white"/>
<rect id="Rectangle 157" x="107" y="568" width="52" height="52" fill="white"/>
<rect id="Rectangle 158" x="729" y="48" width="52" height="52" fill="white"/>
<rect id="Rectangle 159" x="731" y="880" width="52" height="52" fill="white"/>
<rect id="Rectangle 160" x="367" y="620" width="52" height="52" fill="white"/>
<rect id="Rectangle 161" x="1147" y="461" width="52" height="52" fill="white"/>
<rect id="Rectangle 162" x="781" y="207" width="52" height="52" fill="white"/>
<rect id="Rectangle 163" x="471" y="-1" width="52" height="52" fill="white"/>
<rect id="Rectangle 164" x="211" y="48" width="52" height="52" fill="white"/>
<rect id="Rectangle 165" x="3" y="568" width="52" height="52" fill="white"/>
<rect id="Rectangle 166" x="315" y="672" width="52" height="52" fill="white"/>
<rect id="Rectangle 167" x="1197" y="204" width="52" height="52" fill="white"/>
<rect id="Rectangle 168" x="835" y="152" width="52" height="52" fill="white"/>
<rect id="Rectangle 169" x="1095" y="-4" width="52" height="52" fill="white"/>
<rect id="Rectangle 170" x="887" y="828" width="52" height="52" fill="white"/>
<rect id="Rectangle 171" x="1095" y="932" width="52" height="52" fill="white"/>
<rect id="Rectangle 172" x="1199" y="932" width="52" height="52" fill="white"/>
<rect id="Rectangle 173" x="1147" y="672" width="52" height="52" fill="white"/>
<rect id="Rectangle 174" x="367" y="414" width="52" height="52" fill="white"/>
<rect id="Rectangle 175" x="1251" y="155" width="52" height="52" fill="white"/>
<rect id="Rectangle 176" x="211" y="779" width="52" height="52" fill="white"/>
<rect id="Rectangle 177" x="159" y="831" width="52" height="52" fill="white"/>
<rect id="Rectangle 178" x="3" y="464" width="52" height="52" fill="white"/>
<rect id="Rectangle 179" x="159" y="103" width="52" height="52" fill="white"/>
<rect id="Rectangle 180" x="679" y="-4" width="52" height="52" fill="white"/>
<rect id="Rectangle 181" x="1303" y="204" width="52" height="52" fill="white"/>
<rect id="Rectangle 182" x="1355" y="672" width="52" height="52" fill="white"/>
<rect id="Rectangle 183" x="1251" y="880" width="52" height="52" fill="white"/>
<rect id="Rectangle 184" x="783" y="932" width="52" height="52" fill="white"/>
<rect id="Rectangle 185" x="419" y="880" width="52" height="52" fill="white"/>
<rect id="Rectangle 186" x="575" y="103" width="52" height="52" fill="white"/>
<rect id="Rectangle 187" x="783" y="100" width="52" height="52" fill="white"/>
<rect id="Rectangle 188" x="1303" y="-4" width="52" height="52" fill="white"/>
<rect id="Rectangle 189" x="1199" y="409" width="52" height="52" fill="white"/>
<rect id="Rectangle 190" x="159" y="516" width="52" height="52" fill="white"/>
<rect id="Rectangle 191" x="1199" y="518" width="52" height="52" fill="white"/>
<rect id="Rectangle 192" x="1251" y="357" width="52" height="52" fill="white"/>
<rect id="Rectangle 193" x="265" y="207" width="52" height="52" fill="white"/>
<rect id="Rectangle 194" x="317" y="360" width="52" height="52" fill="white"/>
<rect id="Rectangle 195" x="213" y="568" width="52" height="52" fill="white"/>
<rect id="Rectangle 196" x="367" y="724" width="52" height="52" fill="white"/>
<rect id="Rectangle 197" x="627" y="773" width="52" height="52" fill="white"/>
<rect id="Rectangle 198" x="575" y="825" width="52" height="52" fill="white"/>
<rect id="Rectangle 199" x="1199" y="724" width="52" height="52" fill="white"/>
<rect id="Rectangle 200" x="1353" y="48" width="52" height="52" fill="white"/>
<rect id="Rectangle 201" x="1353" y="259" width="52" height="52" fill="white"/>
<rect id="Rectangle 202" x="1405" y="620" width="52" height="52" fill="white"/>
<rect id="Rectangle 203" x="1303" y="932" width="52" height="52" fill="white"/>
<rect id="Rectangle 204" x="471" y="930" width="52" height="52" fill="white"/>
<rect id="Rectangle 205" x="107" y="883" width="52" height="52" fill="white"/>
<rect id="Rectangle 206" x="55" y="620" width="52" height="52" fill="white"/>
<rect id="Rectangle 207" x="55" y="413" width="52" height="52" fill="white"/>
<rect id="Rectangle 208" x="107" y="155" width="52" height="52" fill="white"/>
<rect id="Rectangle 209" x="161" y="-4" width="52" height="52" fill="white"/>
<rect id="Rectangle 210" x="523" y="51" width="52" height="52" fill="white"/>
<rect id="Rectangle 211" x="833" y="51" width="52" height="52" fill="white"/>
<rect id="Rectangle 212" x="1355" y="155" width="52" height="52" fill="white"/>
<rect id="Rectangle 213" x="1407" y="-4" width="52" height="52" fill="white"/>
<rect id="Rectangle 214" x="1355" y="776" width="52" height="52" fill="white"/>
<rect id="Rectangle 215" x="991" y="932" width="52" height="52" fill="white"/>
<rect id="Rectangle 216" x="315" y="256" width="52" height="52" fill="white"/>
<rect id="Rectangle 217" x="159" y="620" width="52" height="52" fill="white"/>
<rect id="Rectangle 218" x="107" y="779" width="52" height="52" fill="white"/>
<rect id="Rectangle 219" x="317" y="776" width="52" height="52" fill="white"/>
<rect id="Rectangle 220" x="263" y="308" width="52" height="52" fill="white"/>
<rect id="Rectangle 221" x="213" y="259" width="52" height="52" fill="white"/>
<rect id="Rectangle 222" x="159" y="207" width="52" height="52" fill="white"/>
<rect id="Rectangle 223" x="1249" y="463" width="52" height="52" fill="white"/>
<rect id="Rectangle 224" x="938" y="48" width="52" height="52" fill="white"/>
<rect id="Rectangle 225" x="109" y="48" width="52" height="52" fill="white"/>
<rect id="Rectangle 226" x="213" y="363" width="52" height="52" fill="white"/>
<rect id="Rectangle 227" x="161" y="727" width="52" height="52" fill="white"/>
<rect id="Rectangle 228" x="523" y="878" width="52" height="52" fill="white"/>
<rect id="Rectangle 229" x="680" y="825" width="52" height="52" fill="white"/>
<rect id="Rectangle 230" x="627" y="876" width="52" height="52" fill="white"/>
<path id="Rectangle 231" d="M575 930H627V982H575V930Z" fill="white"/>
<rect id="Rectangle 232" x="835" y="880" width="52" height="52" fill="white"/>
<rect id="Rectangle 233" x="1305" y="518" width="52" height="52" fill="white"/>
<rect id="Rectangle 234" x="1409" y="207" width="52" height="52" fill="white"/>
<rect id="Rectangle 235" x="55" y="100" width="52" height="52" fill="white"/>
<rect id="Rectangle 236" x="3" y="362" width="52" height="52" fill="white"/>
<rect id="Rectangle 237" x="576" width="52" height="52" fill="white"/>
<rect id="Rectangle 238" x="265" y="831" width="52" height="52" fill="white"/>
<rect id="Rectangle 239" x="57" y="831" width="52" height="52" fill="white"/>
<rect id="Rectangle 240" x="1199" y="831" width="52" height="52" fill="white"/>
<rect id="Rectangle 241" x="1251" y="773" width="52" height="52" fill="white"/>
<rect id="Rectangle 242" x="1351" y="461" width="52" height="52" fill="white"/>
<rect id="Rectangle 243" x="1405" y="414" width="52" height="52" fill="white"/>
<rect id="Rectangle 244" x="888" width="52" height="52" fill="white"/>
<rect id="Rectangle 245" x="161" y="312" width="52" height="52" fill="white"/>
<rect id="Rectangle 246" x="317" y="882" width="52" height="52" fill="white"/>
<rect id="Rectangle 247" x="785" y="-4" width="52" height="52" fill="white"/>
<rect id="Rectangle 248" x="1302" y="828" width="52" height="52" fill="white"/>
<rect id="Rectangle 249" x="1357" y="880" width="52" height="52" fill="white"/>
<rect id="Rectangle 250" x="107" y="362" width="52" height="52" fill="white"/>
<rect id="Rectangle 251" x="317" y="50" width="52" height="52" fill="white"/>
<rect id="Rectangle 252" x="1405" y="102" width="52" height="52" fill="white"/>
<rect id="Rectangle 253" x="940" y="877" width="52" height="52" fill="white"/>
<rect id="Rectangle 254" x="1409" y="929" width="52" height="52" fill="white"/>
<rect id="Rectangle 255" x="212" y="883" width="52" height="52" fill="white"/>
<rect id="Rectangle 256" x="107" y="256" width="52" height="52" fill="white"/>
<rect id="Rectangle 257" x="58" y="-2" width="52" height="52" fill="white"/>
<rect id="Rectangle 258" x="3" y="670" width="52" height="52" fill="white"/>
<rect id="Rectangle 259" x="680" y="930" width="52" height="52" fill="white"/>
<rect id="Rectangle 260" x="1403" y="513" width="52" height="52" fill="white"/>
<rect id="Rectangle 261" x="58" y="311" width="52" height="52" fill="white"/>
<rect id="Rectangle 262" x="107" y="674" width="52" height="52" fill="white"/>
<rect id="Rectangle 263" x="265" y="932" width="52" height="52" fill="white"/>
<rect id="Rectangle 264" x="1409" y="826" width="52" height="52" fill="white"/>
<rect id="Rectangle 265" x="1459" y="155" width="52" height="52" fill="white"/>
<rect id="Rectangle 266" x="265" y="-1" width="52" height="52" fill="white"/>
<rect id="Rectangle 267" x="1405" y="310" width="52" height="52" fill="white"/>
<rect id="Rectangle 268" x="58" y="206" width="52" height="52" fill="white"/>
<rect id="Rectangle 269" x="55" y="727" width="52" height="52" fill="white"/>
<rect id="Rectangle 270" x="888" y="930" width="52" height="52" fill="white"/>
<rect id="Rectangle 271" x="1461" y="880" width="52" height="52" fill="white"/>
<rect id="Rectangle 272" x="4" y="155" width="52" height="52" fill="white"/>
<rect id="Rectangle 273" x="1455" y="463" width="52" height="52" fill="white"/>
<rect id="Rectangle 274" x="1455" y="48" width="52" height="52" fill="white"/>
<rect id="Rectangle 275" x="4" y="779" width="52" height="52" fill="white"/>
<rect id="Rectangle 276" x="159" y="933" width="52" height="52" fill="white"/>
<rect id="Rectangle 277" x="367" y="930" width="52" height="52" fill="white"/>
<rect id="Rectangle 278" x="7" y="48" width="52" height="52" fill="white"/>
<rect id="Rectangle 279" x="1455" y="568" width="52" height="52" fill="white"/>
<rect id="Rectangle 280" x="7" y="261" width="52" height="52" fill="white"/>
<rect id="Rectangle 281" x="1407" y="726" width="52" height="52" fill="white"/>
<rect id="Rectangle 282" x="1459" y="778" width="52" height="52" fill="white"/>
<rect id="Rectangle 283" x="1459" y="676" width="52" height="52" fill="white"/>
<rect id="Rectangle 284" x="5" y="883" width="52" height="52" fill="white"/>
<rect id="Rectangle 285" x="1458" y="260" width="52" height="52" fill="white"/>
<rect id="Rectangle 286" x="55" y="935" width="52" height="52" fill="white"/>
<rect id="Rectangle 287" x="1459" y="364" width="52" height="52" fill="white"/>
</g>
</g>
<defs>
<clipPath id="clip0_164_985">
<rect width="1512" height="982" fill="white"/>
</clipPath>
</defs>
</svg>
