<svg width="1512" height="982" viewBox="0 0 1512 982" fill="none" xmlns="http://www.w3.org/2000/svg">
<g id="MacBook Pro 14&#34; - 22" clip-path="url(#clip0_112_118)">
<rect width="1512" height="982" fill="black"/>
<path id="grilleV4" d="M750.62 -27L752.842 518.448L754.836 1008" stroke="white" stroke-width="2"/>
<path id="grilleV5" d="M947.785 -27L950.007 518.448L952.001 1008" stroke="white" stroke-width="2"/>
<path id="grilleV2" d="M356.29 -27L358.512 518.448L360.506 1008" stroke="white" stroke-width="2"/>
<path id="grilleV1" d="M159.125 -27L161.347 518.448L163.341 1008" stroke="white" stroke-width="2"/>
<path id="grilleV3" d="M553.455 -27L555.677 518.448L557.671 1008" stroke="white" stroke-width="2"/>
<path id="grilleV6" d="M1144.95 -27L1147.17 518.448L1149.17 1008" stroke="white" stroke-width="2"/>
<path id="grilleV7" d="M1342.12 -27L1344.34 518.448L1346.33 1008" stroke="white" stroke-width="2"/>
<path id="grilleH3" d="M1552 475.744L705.107 477.966L-55.0001 479.96" stroke="white" stroke-width="2"/>
<path id="grilleH2" d="M1552 671.783L705.107 674.005L-55.0001 675.999" stroke="white" stroke-width="2"/>
<path id="grilleH5" d="M1552 83.667L705.107 85.8888L-55.0001 87.8828" stroke="white" stroke-width="2"/>
<path id="grilleH4" d="M1552 279.706L705.107 281.927L-55.0001 283.921" stroke="white" stroke-width="2"/>
<path id="grilleH1" d="M1552 867.822L705.107 870.044L-55.0001 872.038" stroke="white" stroke-width="2"/>
</g>
<defs>
<clipPath id="clip0_112_118">
<rect width="1512" height="982" fill="white"/>
</clipPath>
</defs>
</svg>
