<svg width="547" height="529" viewBox="0 0 547 529" fill="none" xmlns="http://www.w3.org/2000/svg">
<ellipse cx="268" cy="264.5" rx="268" ry="264.5" fill="black"/>
<path d="M102.72 139.994L111.598 141.152C130.126 143.468 139.004 153.89 139.004 173.576V354.224C139.004 373.91 130.126 384.332 111.598 386.648L102.72 387.806V399H196.132V387.806L187.254 386.648C168.726 384.332 159.462 373.524 159.462 354.224V162.382L261.366 410.966H262.138L362.112 167.014H370.218L364.042 182.068V358.47C364.042 376.226 354.778 385.49 336.636 387.034L327.758 387.806V399H440.856V387.806L431.978 387.034C413.836 385.49 404.572 376.226 404.572 358.47V169.33C404.572 151.574 413.836 142.31 431.978 140.766L440.856 139.994V128.8H357.094L268.314 350.364L263.682 341.1L269.472 326.432L188.798 128.8H102.72V139.994Z" fill="white"/>
</svg>
