<svg width="193" height="68" viewBox="0 0 193 68" fill="none" xmlns="http://www.w3.org/2000/svg">
<path d="M1.44 16.688L3.096 16.904C6.552 17.336 8.208 19.28 8.208 22.952V56.648C8.208 60.32 6.552 62.264 3.096 62.696L1.44 62.912V65H18.864V62.912L17.208 62.696C13.752 62.264 12.024 60.248 12.024 56.648V20.864L31.032 67.232H31.176L49.824 21.728H51.336L50.184 24.536V57.44C50.184 60.752 48.456 62.48 45.072 62.768L43.416 62.912V65H64.512V62.912L62.856 62.768C59.472 62.48 57.744 60.752 57.744 57.44V22.16C57.744 18.848 59.472 17.12 62.856 16.832L64.512 16.688V14.6H48.888L32.328 55.928L31.464 54.2L32.544 51.464L17.496 14.6H1.44V16.688ZM81.0731 62.48H76.0331V54.92H78.5531V49.88H81.0731V47.36H101.233V54.92H103.753V62.48H98.7131V65H118.873V62.48H113.833V57.44H111.313V52.4H108.793V47.36H106.273V42.32H103.753V34.76H101.233V29.72H98.7131V22.16H96.1931V17.12H93.6731V12.08H91.1531V17.12H88.6331V24.68H86.1131V29.72H83.5931V37.28H81.0731V42.32H78.5531V47.36H76.0331V52.4H73.5131V59.96H70.9931V62.48H65.9531V65H81.0731V62.48ZM91.1531 24.68V29.72H93.6731V37.28H96.1931V42.32H98.7131V44.84H81.0731V42.32H83.5931V37.28H86.1131V32.24H88.6331V24.68H91.1531ZM133.298 21.8H140.498V14.6H133.298V21.8H126.098V57.8H133.298V65H154.898V57.8H133.298V21.8ZM162.098 21.8V14.672H154.898V21.8H162.098Z" fill="white"/>
</svg>
