<svg width="274" height="84" viewBox="0 0 274 84" fill="none" xmlns="http://www.w3.org/2000/svg">
<path d="M40.5 0L42.0157 34.6052L56.9728 3.63109L44.785 35.8838L70.5974 13.8965L46.8133 38.22L79.0178 29.0213L47.7501 41.2098L80.7781 46.3902L47.4332 44.3362L75.574 63L45.9175 47.0586L64.3053 75.9787L43.4651 48.9064L48.9204 83.0822L40.5 49.56L32.0796 83.0822L37.5349 48.9064L16.6947 75.9787L35.0825 47.0586L5.42597 63L33.5668 44.3362L0.221863 46.3902L33.2499 41.2098L1.98221 29.0213L34.1867 38.22L10.4026 13.8965L36.215 35.8838L24.0272 3.63109L38.9843 34.6052L40.5 0Z" fill="white"/>
<path d="M82.44 21.688L84.096 21.904C87.552 22.336 89.208 24.28 89.208 27.952V61.648C89.208 65.32 87.552 67.264 84.096 67.696L82.44 67.912V70H99.864V67.912L98.208 67.696C94.752 67.264 93.024 65.248 93.024 61.648V25.864L112.032 72.232H112.176L130.824 26.728H132.336L131.184 29.536V62.44C131.184 65.752 129.456 67.48 126.072 67.768L124.416 67.912V70H145.512V67.912L143.856 67.768C140.472 67.48 138.744 65.752 138.744 62.44V27.16C138.744 23.848 140.472 22.12 143.856 21.832L145.512 21.688V19.6H129.888L113.328 60.928L112.464 59.2L113.544 56.464L98.496 19.6H82.44V21.688ZM162.073 67.48H157.033V59.92H159.553V54.88H162.073V52.36H182.233V59.92H184.753V67.48H179.713V70H199.873V67.48H194.833V62.44H192.313V57.4H189.793V52.36H187.273V47.32H184.753V39.76H182.233V34.72H179.713V27.16H177.193V22.12H174.673V17.08H172.153V22.12H169.633V29.68H167.113V34.72H164.593V42.28H162.073V47.32H159.553V52.36H157.033V57.4H154.513V64.96H151.993V67.48H146.953V70H162.073V67.48ZM172.153 29.68V34.72H174.673V42.28H177.193V47.32H179.713V49.84H162.073V47.32H164.593V42.28H167.113V37.24H169.633V29.68H172.153ZM214.298 26.8H221.498V19.6H214.298V26.8H207.098V62.8H214.298V70H235.898V62.8H214.298V26.8ZM243.098 26.8V19.672H235.898V26.8H243.098Z" fill="white"/>
</svg>
