<svg width="36" height="38" viewBox="0 0 36 38" fill="none" xmlns="http://www.w3.org/2000/svg">
<path d="M18 0L18.6736 15.6547L25.3213 1.64264L19.9044 16.2332L31.3766 6.28652L20.8059 17.29L35.119 13.1287L21.2222 18.6425L35.9014 20.986L21.0814 20.0568L33.5885 28.5L20.4078 21.2884L28.5801 34.3713L19.3178 22.1243L21.7424 37.5848L18 22.42L14.2576 37.5848L16.6822 22.1243L7.41987 34.3713L15.5922 21.2884L2.41154 28.5L14.9186 20.0568L0.0986061 20.986L14.7777 18.6425L0.880983 13.1287L15.1941 17.29L4.62339 6.28652L16.0956 16.2332L10.6787 1.64264L17.3264 15.6547L18 0Z" fill="white"/>
</svg>
