<svg width="152" height="65" viewBox="0 0 152 65" fill="none" xmlns="http://www.w3.org/2000/svg">
<path d="M1.2 13.74L2.58 13.92C5.46 14.28 6.84 15.9 6.84 18.96V47.04C6.84 50.1 5.46 51.72 2.58 52.08L1.2 52.26V54H15.72V52.26L14.34 52.08C11.46 51.72 10.02 50.04 10.02 47.04V17.22L25.86 55.86H25.98L41.52 17.94H42.78L41.82 20.28V47.7C41.82 50.46 40.38 51.9 37.56 52.14L36.18 52.26V54H53.76V52.26L52.38 52.14C49.56 51.9 48.12 50.46 48.12 47.7V18.3C48.12 15.54 49.56 14.1 52.38 13.86L53.76 13.74V12H40.74L26.94 46.44L26.22 45L27.12 42.72L14.58 12H1.2V13.74ZM67.5609 51.9H63.3609V45.6H65.4609V41.4H67.5609V39.3H84.3609V45.6H86.4609V51.9H82.2609V54H99.0609V51.9H94.8609V47.7H92.7609V43.5H90.6609V39.3H88.5609V35.1H86.4609V28.8H84.3609V24.6H82.2609V18.3H80.1609V14.1H78.0609V9.9H75.9609V14.1H73.8609V20.4H71.7609V24.6H69.6609V30.9H67.5609V35.1H65.4609V39.3H63.3609V43.5H61.2609V49.8H59.1609V51.9H54.9609V54H67.5609V51.9ZM75.9609 20.4V24.6H78.0609V30.9H80.1609V35.1H82.2609V37.2H67.5609V35.1H69.6609V30.9H71.7609V26.7H73.8609V20.4H75.9609ZM111.082 18H117.082V12H111.082V18H105.082V48H111.082V54H129.082V48H111.082V18ZM135.082 18V12.06H129.082V18H135.082Z" fill="white"/>
</svg>
