<svg width="91" height="39" viewBox="0 0 91 39" fill="none" xmlns="http://www.w3.org/2000/svg">
<path d="M0.72 7.844L1.548 7.952C3.276 8.168 4.104 9.14 4.104 10.976V27.824C4.104 29.66 3.276 30.632 1.548 30.848L0.72 30.956V32H9.432V30.956L8.604 30.848C6.876 30.632 6.012 29.624 6.012 27.824V9.932L15.516 33.116H15.588L24.912 10.364H25.668L25.092 11.768V28.22C25.092 29.876 24.228 30.74 22.536 30.884L21.708 30.956V32H32.256V30.956L31.428 30.884C29.736 30.74 28.872 29.876 28.872 28.22V10.58C28.872 8.924 29.736 8.06 31.428 7.916L32.256 7.844V6.8H24.444L16.164 27.464L15.732 26.6L16.272 25.232L8.748 6.8H0.72V7.844ZM40.5366 30.74H38.0166V26.96H39.2766V24.44H40.5366V23.18H50.6166V26.96H51.8766V30.74H49.3566V32H59.4366V30.74H56.9166V28.22H55.6566V25.7H54.3966V23.18H53.1366V20.66H51.8766V16.88H50.6166V14.36H49.3566V10.58H48.0966V8.06H46.8366V5.54H45.5766V8.06H44.3166V11.84H43.0566V14.36H41.7966V18.14H40.5366V20.66H39.2766V23.18H38.0166V25.7H36.7566V29.48H35.4966V30.74H32.9766V32H40.5366V30.74ZM45.5766 11.84V14.36H46.8366V18.14H48.0966V20.66H49.3566V21.92H40.5366V20.66H41.7966V18.14H43.0566V15.62H44.3166V11.84H45.5766ZM66.6492 10.4H70.2492V6.8H66.6492V10.4H63.0492V28.4H66.6492V32H77.4492V28.4H66.6492V10.4ZM81.0492 10.4V6.836H77.4492V10.4H81.0492Z" fill="white"/>
</svg>
