<svg width="265" height="84" viewBox="0 0 265 84" fill="none" xmlns="http://www.w3.org/2000/svg">
<path d="M224.5 0L226.016 34.6052L240.973 3.63109L228.785 35.8838L254.597 13.8965L230.813 38.22L263.018 29.0213L231.75 41.2098L264.778 46.3902L231.433 44.3362L259.574 63L229.918 47.0586L248.305 75.9787L227.465 48.9064L232.92 83.0822L224.5 49.56L216.08 83.0822L221.535 48.9064L200.695 75.9787L219.082 47.0586L189.426 63L217.567 44.3362L184.222 46.3902L217.25 41.2098L185.982 29.0213L218.187 38.22L194.403 13.8965L220.215 35.8838L208.027 3.63109L222.984 34.6052L224.5 0Z" fill="white"/>
<path d="M1.44 21.688L3.096 21.904C6.552 22.336 8.208 24.28 8.208 27.952V61.648C8.208 65.32 6.552 67.264 3.096 67.696L1.44 67.912V70H18.864V67.912L17.208 67.696C13.752 67.264 12.024 65.248 12.024 61.648V25.864L31.032 72.232H31.176L49.824 26.728H51.336L50.184 29.536V62.44C50.184 65.752 48.456 67.48 45.072 67.768L43.416 67.912V70H64.512V67.912L62.856 67.768C59.472 67.48 57.744 65.752 57.744 62.44V27.16C57.744 23.848 59.472 22.12 62.856 21.832L64.512 21.688V19.6H48.888L32.328 60.928L31.464 59.2L32.544 56.464L17.496 19.6H1.44V21.688ZM81.0731 67.48H76.0331V59.92H78.5531V54.88H81.0731V52.36H101.233V59.92H103.753V67.48H98.7131V70H118.873V67.48H113.833V62.44H111.313V57.4H108.793V52.36H106.273V47.32H103.753V39.76H101.233V34.72H98.7131V27.16H96.1931V22.12H93.6731V17.08H91.1531V22.12H88.6331V29.68H86.1131V34.72H83.5931V42.28H81.0731V47.32H78.5531V52.36H76.0331V57.4H73.5131V64.96H70.9931V67.48H65.9531V70H81.0731V67.48ZM91.1531 29.68V34.72H93.6731V42.28H96.1931V47.32H98.7131V49.84H81.0731V47.32H83.5931V42.28H86.1131V37.24H88.6331V29.68H91.1531ZM133.298 26.8H140.498V19.6H133.298V26.8H126.098V62.8H133.298V70H154.898V62.8H133.298V26.8ZM162.098 26.8V19.672H154.898V26.8H162.098Z" fill="white"/>
</svg>
