<svg width="61" height="64" viewBox="0 0 61 64" fill="none" xmlns="http://www.w3.org/2000/svg">
<path d="M30.5 0L31.6414 26.3659L42.9055 2.76655L33.7269 27.3401L53.1659 10.5878L35.2545 29.12L59.5072 22.1115L35.9599 31.3979L60.8329 35.3449L35.7213 33.7799L56.9138 48L34.5799 35.8542L48.4275 57.8885L32.733 37.262L36.8413 63.3007L30.5 37.76L24.1587 63.3007L28.267 37.262L12.5725 57.8885L26.4201 35.8542L4.08623 48L25.2787 33.7799L0.167082 35.3449L25.0401 31.3979L1.49278 22.1115L25.7455 29.12L7.83408 10.5878L27.2731 27.3401L18.0945 2.76655L29.3586 26.3659L30.5 0Z" fill="white"/>
</svg>
