<svg width="265" height="84" viewBox="0 0 265 84" fill="none" xmlns="http://www.w3.org/2000/svg">
<path d="M224.5 0L226.016 34.6052L240.973 3.63109L228.785 35.8838L254.597 13.8965L230.813 38.22L263.018 29.0213L231.75 41.2098L264.778 46.3902L231.433 44.3362L259.574 63L229.918 47.0586L248.305 75.9787L227.465 48.9064L232.92 83.0822L224.5 49.56L216.08 83.0822L221.535 48.9064L200.695 75.9787L219.082 47.0586L189.426 63L217.567 44.3362L184.222 46.3902L217.25 41.2098L185.982 29.0213L218.187 38.22L194.403 13.8965L220.215 35.8838L208.027 3.63109L222.984 34.6052L224.5 0Z" fill="white"/>
<path d="M1.44 16.688L3.096 16.904C6.552 17.336 8.208 19.28 8.208 22.952V56.648C8.208 60.32 6.552 62.264 3.096 62.696L1.44 62.912V65H18.864V62.912L17.208 62.696C13.752 62.264 12.024 60.248 12.024 56.648V20.864L31.032 67.232H31.176L49.824 21.728H51.336L50.184 24.536V57.44C50.184 60.752 48.456 62.48 45.072 62.768L43.416 62.912V65H64.512V62.912L62.856 62.768C59.472 62.48 57.744 60.752 57.744 57.44V22.16C57.744 18.848 59.472 17.12 62.856 16.832L64.512 16.688V14.6H48.888L32.328 55.928L31.464 54.2L32.544 51.464L17.496 14.6H1.44V16.688ZM81.0731 62.48H76.0331V54.92H78.5531V49.88H81.0731V47.36H101.233V54.92H103.753V62.48H98.7131V65H118.873V62.48H113.833V57.44H111.313V52.4H108.793V47.36H106.273V42.32H103.753V34.76H101.233V29.72H98.7131V22.16H96.1931V17.12H93.6731V12.08H91.1531V17.12H88.6331V24.68H86.1131V29.72H83.5931V37.28H81.0731V42.32H78.5531V47.36H76.0331V52.4H73.5131V59.96H70.9931V62.48H65.9531V65H81.0731V62.48ZM91.1531 24.68V29.72H93.6731V37.28H96.1931V42.32H98.7131V44.84H81.0731V42.32H83.5931V37.28H86.1131V32.24H88.6331V24.68H91.1531ZM133.298 21.8H140.498V14.6H133.298V21.8H126.098V57.8H133.298V65H154.898V57.8H133.298V21.8ZM162.098 21.8V14.672H154.898V21.8H162.098Z" fill="white"/>
</svg>
