<svg width="81" height="84" viewBox="0 0 81 84" fill="none" xmlns="http://www.w3.org/2000/svg">
<path d="M40.5 0L42.0157 34.6052L56.9728 3.63109L44.785 35.8838L70.5974 13.8965L46.8133 38.22L79.0178 29.0213L47.7501 41.2098L80.7781 46.3902L47.4332 44.3362L75.574 63L45.9175 47.0586L64.3053 75.9787L43.4651 48.9064L48.9204 83.0822L40.5 49.56L32.0796 83.0822L37.5349 48.9064L16.6947 75.9787L35.0825 47.0586L5.42597 63L33.5668 44.3362L0.221863 46.3902L33.2499 41.2098L1.98221 29.0213L34.1867 38.22L10.4026 13.8965L36.215 35.8838L24.0272 3.63109L38.9843 34.6052L40.5 0Z" fill="white"/>
</svg>
